#!OML:ASF \\sashay\E\Suitcase\Project 1\Capture day 1\Session 1\Male1.ASF
:FULLY-SPECIFIED
:DEGREES
1148
root -1.75341 17.4949 9.87218 4.1939 5.80005 -1.29251
lowerback 3.27769 -2.45537 3.26756
upperback -0.296582 -3.0732 3.1179
thorax -2.14275 -1.55194 1.53304
lowerneck -10.8024 -4.85287 -11.4259
upperneck 16.8143 -5.85172 6.93713
head 7.49252 -2.92766 3.5794
rclavicle -1.22253e-014 1.74931e-014
rhumerus -25.6983 -26.3264 -66.7462
rradius 21.7199
rwrist -9.90429
rhand -9.96307 21.6504
rfingers 7.12502
rthumb 16.0192 -7.70735
lclavicle -1.22253e-014 1.74931e-014
lhumerus -38.6249 -5.64504 89.9111
lradius 35.7362
lwrist -4.93377
lhand 0.937214 44.7548
lfingers 7.12502
lthumb 26.4878 72.9235
rfemur -5.5138 -1.60171 24.596
rtibia 17.3794
rfoot -13.4714 -19.9033
rtoes 15.5879
lfemur -6.86789 -6.44162 -9.53345
ltibia 16.2948
lfoot -11.3645 5.20046
ltoes -2.74859
1149
root -1.77616 17.4918 9.87893 4.04474 5.73918 -1.38004
lowerback 3.45612 -2.39226 3.10641
upperback -0.413821 -2.97978 3.17917
thorax -2.35228 -1.50488 1.69314
lowerneck -10.752 -4.89526 -11.5486
upperneck 16.986 -5.89649 6.91408
head 7.54798 -2.96167 3.58887
rclavicle 3.07122e-014 -2.46493e-014
rhumerus -25.911 -25.8969 -66.7901
rradius 22.3315
rwrist -10.2862
rhand -9.93077 21.0345
rfingers 7.12502
rthumb 16.0503 -8.32067
lclavicle 3.07122e-014 -2.46493e-014
lhumerus -38.6913 -5.22693 89.7698
lradius 35.5096
lwrist -5.03565
lhand 0.926975 44.8054
lfingers 7.12502
lthumb 26.478 72.9755
rfemur -5.39311 -1.21739 24.7814
rtibia 17.4433
rfoot -13.8864 -20.1614
rtoes 16.9558
lfemur -6.69189 -6.50002 -9.38048
ltibia 16.2449
lfoot -11.4477 5.3457
ltoes -2.9755
1150
root -1.7885 17.4869 9.86752 4.08837 5.84046 -1.60674
lowerback 3.65687 -2.4523 3.22483
upperback -0.733445 -3.027 3.2694
thorax -2.79616 -1.53292 1.74395
lowerneck -10.3454 -4.82103 -11.6282
upperneck 17.0684 -5.81948 6.85059
head 7.49601 -2.94469 3.59658
rclavicle 3.19049e-014 1.59028e-015
rhumerus -25.9406 -24.448 -67.1223
rradius 22.5776
rwrist -11.449
rhand -10.1368 20.8908
rfingers 7.12502
rthumb 15.8519 -8.48032
lclavicle 3.19049e-014 1.59028e-015
lhumerus -38.9798 -4.92932 89.6734
lradius 35.438
lwrist -4.91773
lhand 0.872011 45.0194
lfingers 7.12502
lthumb 26.4253 73.1975
rfemur -5.52977 -1.14031 25.0964
rtibia 17.5348
rfoot -14.0302 -20.2496
rtoes 17.4535
lfemur -6.83938 -6.37444 -9.06078
ltibia 16.2396
lfoot -11.3764 5.28365
ltoes -2.98702
1151
root -1.79185 17.4921 9.86499 4.08249 5.88596 -1.35543
lowerback 3.79526 -2.45217 3.04917
upperback -0.909789 -3.02464 3.11836
thorax -3.05491 -1.53201 1.69889
lowerneck -10.1746 -4.81824 -11.5639
upperneck 17.1729 -5.84121 6.79378
head 7.49819 -2.96051 3.56838
rclavicle 1.03368e-014 -2.14687e-014
rhumerus -26.0084 -24.6276 -67.1155
rradius 22.7265
rwrist -11.2361
rhand -10.1296 21.0877
rfingers 7.12502
rthumb 15.8588 -8.28283
lclavicle 1.03368e-014 -2.14687e-014
lhumerus -38.9771 -4.56388 89.3842
lradius 34.9364
lwrist -5.14987
lhand 0.858455 44.4495
lfingers 7.12502
lthumb 26.4124 72.6295
rfemur -5.59022 -1.57351 24.7981
rtibia 17.6499
rfoot -13.975 -19.9393
rtoes 17.3169
lfemur -6.77245 -6.27552 -9.36136
ltibia 16.1496
lfoot -11.3154 5.22341
ltoes -3.75977
1152
root -1.79731 17.4902 9.8406 4.24513 6.08639 -1.29687
lowerback 4.05242 -2.50378 3.05335
upperback -1.3023 -3.06507 3.06338
thorax -3.60922 -1.55642 1.67007
lowerneck -9.63451 -4.77101 -11.5908
upperneck 17.1923 -5.82721 6.74553
head 7.40667 -2.97063 3.56765
rclavicle -5.56597e-015 9.54166e-015
rhumerus -26.324 -24.6868 -66.9474
rradius 22.8792
rwrist -11.2255
rhand -10.0607 21.8138
rfingers 7.12502
rthumb 15.9252 -7.55141
lclavicle -5.56597e-015 9.54166e-015
lhumerus -39.3679 -4.36967 89.2623
lradius 34.9113
lwrist -5.1277
lhand 0.84141 44.6916
lfingers 7.12502
lthumb 26.396 72.8741
rfemur -5.90739 -1.79504 24.7591
rtibia 17.8592
rfoot -13.7514 -19.7798
rtoes 16.1892
lfemur -7.05699 -6.30451 -9.38634
ltibia 16.0474
lfoot -11.0491 5.13851
ltoes -3.87351
1153
root -1.77927 17.4952 9.83291 4.29488 6.40466 -0.906151
lowerback 3.89785 -2.64189 3.00999
upperback -1.25643 -3.26804 2.8679
thorax -3.48225 -1.658 1.49721
lowerneck -9.76325 -4.76634 -11.5619
upperneck 17.1768 -5.79818 6.68384
head 7.41916 -2.95745 3.54301
rclavicle -1.4561e-014 0
rhumerus -25.7985 -24.8563 -67.2061
rradius 23.0348
rwrist -10.9994
rhand -10.0793 21.55
rfingers 7.12502
rthumb 15.9072 -7.81665
lclavicle -1.4561e-014 0
lhumerus -39.0515 -4.04547 89.0375
lradius 34.6681
lwrist -4.90603
lhand 0.543339 44.5249
lfingers 7.12502
lthumb 26.1107 72.7498
rfemur -5.96685 -3.1116 24.1946
rtibia 17.9055
rfoot -13.7334 -18.9433
rtoes 16.1829
lfemur -7.14794 -6.41811 -9.93082
ltibia 16.0961
lfoot -11.0265 4.98091
ltoes -5.46639
1154
root -1.78844 17.4946 9.81776 4.35688 6.34002 -0.661552
lowerback 3.92987 -2.6354 2.67513
upperback -1.34635 -3.27525 2.79629
thorax -3.57813 -1.65604 1.61492
lowerneck -9.52075 -4.7238 -11.5574
upperneck 17.0935 -5.75288 6.61564
head 7.34258 -2.94497 3.5279
rclavicle -5.46658e-015 -1.35174e-014
rhumerus -25.6979 -24.9923 -67.2531
rradius 23.2345
rwrist -10.6308
rhand -9.85525 21.5753
rfingers 7.12502
rthumb 16.123 -7.77409
lclavicle -5.46658e-015 -1.35174e-014
lhumerus -39.0857 -3.14591 88.6396
lradius 34.7745
lwrist -5.58623
lhand 0.87963 44.6332
lfingers 7.12502
lthumb 26.4326 72.8101
rfemur -6.01313 -2.96994 23.9337
rtibia 17.8601
rfoot -13.6576 -18.8402
rtoes 16.065
lfemur -7.33281 -6.51675 -10.1901
ltibia 16.2579
lfoot -11.0459 5.27097
ltoes -6.01274
1155
root -1.81227 17.4825 9.81905 4.00789 6.19622 -1.68061
lowerback 3.94525 -2.5188 3.42355
upperback -1.16831 -3.07451 3.11192
thorax -3.42751 -1.56678 1.50483
lowerneck -9.51741 -4.80383 -11.7164
upperneck 17.0049 -5.83266 6.61607
head 7.32676 -2.99194 3.54498
rclavicle 5.62064e-014 -3.10104e-014
rhumerus -25.4492 -25.4936 -67.153
rradius 23.4382
rwrist -10.2888
rhand -9.42272 21.5097
rfingers 7.12502
rthumb 16.5395 -7.80542
lclavicle 5.62064e-014 -3.10104e-014
lhumerus -38.7238 -3.2355 88.6515
lradius 34.5572
lwrist -5.21754
lhand 0.865601 44.4466
lfingers 7.12502
lthumb 26.4192 72.6255
rfemur -5.71771 -2.31679 25.1775
rtibia 17.765
rfoot -13.658 -19.3262
rtoes 16.2483
lfemur -7.18761 -6.25931 -8.98494
ltibia 16.4544
lfoot -11.3059 5.41817
ltoes -5.7779
1156
root -1.81941 17.4861 9.8089 4.03 6.39246 -1.70373
lowerback 3.82569 -2.62221 3.40839
upperback -1.13934 -3.2215 3.10821
thorax -3.32961 -1.63903 1.51237
lowerneck -9.47348 -4.75861 -11.6434
upperneck 16.9063 -5.765 6.51307
head 7.27516 -2.96314 3.50595
rclavicle 4.39314e-014 -1.90833e-014
rhumerus -25.0507 -25.0601 -67.4978
rradius 23.558
rwrist -10.7181
rhand -9.72743 21.5023
rfingers 7.12502
rthumb 16.2461 -7.83702
lclavicle 4.39314e-014 -1.90833e-014
lhumerus -38.5345 -3.02312 88.4931
lradius 34.477
lwrist -5.13224
lhand 0.796107 44.7603
lfingers 7.12502
lthumb 26.3527 72.9492
rfemur -5.7347 -2.62232 25.2085
rtibia 17.6762
rfoot -13.8724 -19.1464
rtoes 17.1698
lfemur -7.35146 -6.23248 -8.8956
ltibia 16.6194
lfoot -11.4032 5.01328
ltoes -6.07281
1157
root -1.8293 17.4832 9.7989 4.13658 6.38236 -1.72497
lowerback 3.61823 -2.56077 3.38204
upperback -1.12022 -3.15351 3.1138
thorax -3.19102 -1.60393 1.51641
lowerneck -9.38855 -4.81144 -11.7634
upperneck 16.7878 -5.82046 6.50015
head 7.23107 -2.99819 3.51613
rclavicle 1.4561e-014 2.38542e-014
rhumerus -24.7277 -24.5758 -67.7051
rradius 23.759
rwrist -11.3854
rhand -9.68111 21.6176
rfingers 7.12502
rthumb 16.2907 -7.71812
lclavicle 1.4561e-014 2.38542e-014
lhumerus -38.3036 -2.90743 88.4649
lradius 34.463
lwrist -5.07509
lhand 0.628081 44.842
lfingers 7.12502
lthumb 26.1918 73.0549
rfemur -5.81508 -2.6723 25.2874
rtibia 17.5468
rfoot -13.6805 -19.1804
rtoes 17.1162
lfemur -7.57741 -6.36952 -8.8092
ltibia 16.8161
lfoot -11.7342 5.10311
ltoes -3.62
